<svg width="800" height="800" viewBox="0 0 800 800" fill="none" xmlns="http://www.w3.org/2000/svg">
<path d="M769.751 506.175V460.85C686.026 427.475 636.726 396.325 621.551 346.65C609.101 305.875 646.651 251.625 717.451 186.25C643.501 226.775 589.076 254.3 567.526 215.875C548.176 181.375 569.851 116.725 604.126 31.95H579.726C552.376 75.225 529.101 108.05 520.451 99.95C512.926 92.875 512.826 67.425 516.101 31.95L465.551 31.925C432.101 106.85 396.626 149.3 345.251 156.575C301.351 162.8 244.526 111.225 180.501 38.025C216.951 110.375 230.351 168.4 205.776 182.725C176.726 199.675 118.501 179.7 32.3008 143.5V160.05C91.6008 197.7 146.226 234.425 136.026 248.1C127.076 260.1 86.2258 258.025 32.3008 250.725V293.45C110.326 332.85 152.601 373.275 152.601 411.125C152.601 443.675 87.5758 510.15 32.3008 562.8V588.075C82.1758 571.725 143.376 565.375 163.926 602.025C184.901 639.4 170.826 692.3 143.876 769.4H190.076C239.026 703.275 285.551 650.25 310.376 652.6C327.951 654.25 319.751 708.225 307.751 769.4H321.701C365.276 648.275 419.001 574.05 498.651 576.75C568.551 579.15 634.876 649.5 707.851 699.65C669.701 652.975 599.426 586.5 614.576 574.125C630.501 561.1 698.751 584.925 769.751 610.725V588.05C723.176 556.275 680.351 525.75 691.301 514.825C701.151 505 731.201 503.425 769.751 506.1V506.175ZM548.701 452.025C540.326 460.375 592.676 491.45 622.601 512.975C577.351 497.175 520.301 473.425 509.651 482.125C501.951 488.425 537.651 522.2 557.076 545.95C519.951 520.425 485.951 484.75 450.401 483.55C398.101 481.775 368.151 544.6 342.326 640.6C349.126 595.025 369.551 523.625 354.876 522.275C334.051 520.325 283.726 594.575 246.101 649.925C272.376 570.3 296.251 524.925 280.276 496.45C265.851 470.725 211.676 486.375 188.226 500.025C215.851 473.95 274.401 421.5 274.401 399.4C274.401 367.25 216.401 331.075 109.426 300.625C173.726 310.75 256.626 329.35 266.301 316.4C273.876 306.275 211.501 271.075 173.551 246.125C240.351 274.775 282.676 294.125 301.601 283.1C314.101 275.8 307.151 246.35 288.601 209.55C321.176 246.775 350.376 273 372.701 269.825C419.801 263.15 440.151 200.825 476.851 81.875C468.226 148.075 450.751 231 461.501 241.1C469.551 248.675 502.401 187.5 527.751 148.575C499.151 220.725 471.626 274.975 485.501 299.7C496.476 319.25 524.301 305.45 561.901 284.85C525.901 318.1 506.551 345.675 512.876 366.425C525.451 407.6 584.301 423.725 689.501 460.575C635.476 453.575 561.126 439.525 548.651 451.975L548.701 452.025Z" fill="#384C59"/>
</svg>
