<svg width="800" height="800" viewBox="0 0 800 800" fill="none" xmlns="http://www.w3.org/2000/svg">
<path d="M600.68 411L560.013 370.333C550.347 362 544.68 349.667 544.347 336C543.68 321 549.68 306 560.68 295L600.68 255C635.347 220.333 648.347 187 637.347 160.667C626.68 134.667 593.68 120.333 545.013 120.333H196.68V91.6666C196.68 78 185.346 66.6666 171.68 66.6666C158.013 66.6666 146.68 78 146.68 91.6666V708.333C146.68 722 158.013 733.333 171.68 733.333C185.346 733.333 196.68 722 196.68 708.333V545.667H545.013C593.013 545.667 625.347 531 636.347 504.667C647.347 478.333 634.68 445.333 600.68 411Z" fill="#384C59"/>
</svg>
