<svg width="800" height="800" viewBox="0 0 800 800" fill="none" xmlns="http://www.w3.org/2000/svg">
<g clip-path="url(#clip0_39_4)">
<path d="M514.006 219.544C511.146 219.548 508.388 218.48 506.276 216.552C505.16 215.536 504.255 214.311 503.613 212.945C502.97 211.58 502.603 210.101 502.532 208.594C502.461 207.087 502.688 205.58 503.199 204.161C503.71 202.741 504.496 201.436 505.512 200.32C530.886 172.439 562.193 154.522 596.054 148.508C624.118 143.527 653.682 146.769 679.293 157.647C682.098 158.839 684.314 161.096 685.455 163.921C686.596 166.746 686.568 169.909 685.378 172.714C684.186 175.518 681.928 177.734 679.103 178.875C676.277 180.016 673.114 179.988 670.309 178.797C630.511 161.894 570.786 162.733 522.506 215.786C521.43 216.971 520.118 217.918 518.654 218.565C517.19 219.213 515.607 219.546 514.006 219.544Z" fill="#D0C9BF"/>
<path d="M538.239 286.855L556.575 268.519C578.542 246.552 578.542 210.936 556.575 188.969L535.552 167.945C513.584 145.978 477.969 145.978 456.002 167.945L424.6 199.347C389.13 184.011 350.023 175.497 308.922 175.497C147.78 175.497 17.1484 306.128 17.1484 467.27C17.1484 628.413 147.78 759.044 308.922 759.044C470.064 759.044 600.695 628.413 600.695 467.27C600.695 399.161 577.355 336.503 538.239 286.855Z" fill="#384C59"/>
<path d="M709.337 163.536C709.337 182.577 693.845 198.069 674.803 198.069C655.761 198.069 640.27 182.577 640.27 163.536C640.27 144.495 655.761 129.003 674.803 129.003C693.845 129.003 709.337 144.495 709.337 163.536ZM687.825 105.32V62.425C687.825 55.2328 681.995 49.4031 674.803 49.4031C667.611 49.4031 661.781 55.2328 661.781 62.425V105.32C661.781 108.774 663.153 112.086 665.595 114.528C668.037 116.97 671.349 118.342 674.803 118.342C678.257 118.342 681.569 116.97 684.011 114.528C686.453 112.086 687.825 108.774 687.825 105.32ZM642.847 131.578C644.056 130.369 645.015 128.934 645.67 127.354C646.324 125.774 646.661 124.08 646.661 122.37C646.661 120.66 646.324 118.967 645.67 117.387C645.015 115.807 644.056 114.372 642.847 113.163L612.515 82.8313C610.065 80.4285 606.766 79.09 603.334 79.1068C599.902 79.1236 596.616 80.4943 594.19 82.921C591.763 85.3477 590.393 88.6341 590.376 92.0658C590.36 95.4975 591.698 98.7969 594.101 101.247L624.433 131.578C626.975 134.12 630.308 135.392 633.64 135.392C636.973 135.392 640.304 134.12 642.847 131.578ZM612.515 244.238L642.847 213.906C645.25 211.456 646.588 208.157 646.572 204.725C646.555 201.294 645.185 198.007 642.758 195.58C640.332 193.154 637.046 191.783 633.614 191.766C630.182 191.749 626.883 193.088 624.433 195.491L594.101 225.822C592.279 227.643 591.039 229.963 590.536 232.489C590.033 235.016 590.291 237.634 591.276 240.014C592.262 242.394 593.931 244.428 596.073 245.858C598.215 247.289 600.733 248.052 603.309 248.052C605.019 248.054 606.713 247.718 608.293 247.063C609.873 246.409 611.308 245.448 612.515 244.238ZM687.825 264.645V221.75C687.825 214.558 681.995 208.728 674.803 208.728C667.611 208.728 661.781 214.558 661.781 221.75V264.645C661.781 271.838 667.611 277.667 674.803 277.667C681.995 277.667 687.825 271.838 687.825 264.645ZM755.506 244.238C756.715 243.028 757.675 241.593 758.329 240.013C758.984 238.433 759.321 236.74 759.321 235.03C759.321 233.32 758.984 231.626 758.329 230.046C757.675 228.466 756.715 227.031 755.506 225.822L725.175 195.491C722.725 193.088 719.425 191.749 715.993 191.766C712.562 191.783 709.275 193.154 706.849 195.58C704.422 198.007 703.052 201.294 703.035 204.725C703.019 208.157 704.358 211.456 706.761 213.906L737.092 244.238C739.634 246.78 742.967 248.052 746.3 248.052C749.633 248.052 752.964 246.78 755.506 244.238ZM788.936 163.536C788.936 160.082 787.564 156.77 785.122 154.328C782.68 151.886 779.367 150.514 775.914 150.514H733.019C725.826 150.514 719.997 156.344 719.997 163.536C719.997 170.728 725.826 176.558 733.019 176.558H775.914C779.367 176.558 782.68 175.186 785.122 172.744C787.564 170.302 788.936 166.99 788.936 163.536ZM725.175 131.578L755.506 101.247C757.909 98.7969 759.248 95.4975 759.231 92.0658C759.215 88.6341 757.844 85.3477 755.418 82.921C752.991 80.4943 749.705 79.1236 746.273 79.1068C742.842 79.09 739.542 80.4285 737.092 82.8313L706.761 113.163C704.939 114.983 703.698 117.304 703.195 119.83C702.692 122.356 702.95 124.975 703.936 127.355C704.921 129.734 706.591 131.768 708.733 133.199C710.875 134.63 713.393 135.393 715.969 135.392C717.679 135.394 719.372 135.059 720.952 134.404C722.532 133.749 723.967 132.789 725.175 131.578Z" fill="#FFC145"/>
<path d="M193.765 240.506C148.734 260.298 122.2 299.026 134.499 327.007C146.797 354.988 193.271 361.627 238.302 341.835C283.332 322.042 309.866 283.314 297.567 255.333C285.269 227.352 238.795 220.714 193.765 240.506Z" fill="#80878C"/>
<rect x="844.707" y="-30.1508" width="1310.78" height="70" transform="rotate(135 844.707 -30.1508)" fill="#FF6262"/>
<rect x="829.859" y="848.707" width="1310.78" height="70" transform="rotate(-135 829.859 848.707)" fill="#FF6262"/>
</g>
<defs>
<clipPath id="clip0_39_4">
<rect width="800" height="800" fill="white"/>
</clipPath>
</defs>
</svg>
