<svg width="800" height="800" viewBox="0 0 800 800" fill="none" xmlns="http://www.w3.org/2000/svg">
<path fill-rule="evenodd" clip-rule="evenodd" d="M303.748 260.734C314.919 227.889 351.837 200 400.001 200C459.551 200 500.001 241.351 500.001 283.333C500.001 325.315 459.551 366.667 400.001 366.667C381.591 366.667 366.667 381.59 366.667 400V466.667C366.667 485.077 381.591 500 400.001 500C418.411 500 433.334 485.077 433.334 466.667V430.273C506.767 416.67 566.667 359.02 566.667 283.333C566.667 196.449 487.731 133.333 400.001 133.333C327.366 133.333 262.243 175.728 240.632 239.266C234.704 256.695 244.027 275.63 261.456 281.558C278.885 287.486 297.82 278.163 303.748 260.734ZM400.001 666.667C427.617 666.667 450.001 644.28 450.001 616.667C450.001 589.053 427.617 566.667 400.001 566.667C372.387 566.667 350.001 589.053 350.001 616.667C350.001 644.28 372.387 666.667 400.001 666.667Z" fill="#384C59"/>
</svg>
