<svg width="800" height="800" viewBox="0 0 800 800" fill="none" xmlns="http://www.w3.org/2000/svg">
<g clip-path="url(#clip0_116_2)">
<path fill-rule="evenodd" clip-rule="evenodd" d="M709.806 400C709.806 382.588 708.206 364.8 704.959 347.012L792.535 271.106L709.43 129.082L598.935 165.93C571.03 142.777 539.217 124.518 505.665 112.423L482.888 0H317.147L294.371 112.377C260.442 124.518 229.195 142.494 201.053 165.883L90.6062 129.082L7.5 271.106L95.0767 347.012C91.8292 364.8 90.2292 382.588 90.2292 400C90.2292 417.412 91.8292 435.2 95.0762 452.988L7.5 528.894L90.6058 670.917L201.1 634.07C229.006 657.223 260.817 675.482 294.371 687.577L317.147 800H482.888L505.664 687.623C539.547 675.482 570.841 657.506 598.982 634.117L709.429 670.965L792.535 528.941L704.958 453.035C708.205 435.2 709.805 417.412 709.805 400M400.017 564.706C309.194 564.706 235.311 490.823 235.311 400C235.311 309.177 309.194 235.294 400.017 235.294C490.841 235.294 564.723 309.177 564.723 400C564.723 490.823 490.841 564.706 400.017 564.706Z" fill="#EAEAEA"/>
</g>
<defs>
<clipPath id="clip0_116_2">
<rect width="800" height="800" fill="white"/>
</clipPath>
</defs>
</svg>
