<svg width="800" height="498" viewBox="0 0 800 498" fill="none" xmlns="http://www.w3.org/2000/svg">
<path d="M0 171.272V326.727C0 359.012 26.175 385.192 58.4594 385.192H167.314V112.819H58.4594C26.175 112.819 0 138.986 0 171.272Z" fill="#262626"/>
<path d="M438.01 3.72808C432.123 0.118708 424.785 -0.178174 418.631 2.9562L202.332 112.82V385.194L418.631 495.058C424.787 498.177 432.123 497.88 438.01 494.272C443.892 490.663 447.478 484.247 447.478 477.356V20.6562C447.479 13.7515 443.892 7.3359 438.01 3.72808Z" fill="#262626"/>
<path d="M638.317 103.166C630.401 94.3751 616.871 93.6767 608.088 101.592C599.31 109.494 598.607 123.022 606.515 131.813C636.437 165.019 651.379 206.928 651.387 249C651.379 291.088 636.439 332.994 606.523 366.184C598.607 374.963 599.312 388.505 608.088 396.42C616.865 404.32 630.401 403.623 638.309 394.847C675.562 353.517 694.207 301.184 694.192 249C694.206 196.828 675.56 144.48 638.317 103.166Z" fill="#262626"/>
<path d="M529.321 172.487C520.536 180.389 519.832 193.933 527.747 202.709C539.613 215.881 545.5 232.366 545.514 249C545.5 265.631 539.613 282.116 527.747 295.303C519.832 304.081 520.538 317.609 529.321 325.523C538.105 333.439 551.633 332.725 559.541 323.95C578.699 302.698 588.338 275.775 588.314 249C588.338 222.223 578.699 195.314 559.541 174.062C551.633 165.272 538.099 164.573 529.321 172.487Z" fill="#262626"/>
</svg>
